<svg width="22" height="21" viewBox="0 0 22 21" fill="none" xmlns="http://www.w3.org/2000/svg">
<path d="M15.25 11L11.1 6.95C10.5833 6.45 10.1458 5.89583 9.7875 5.2875C9.42917 4.67917 9.25 4.01667 9.25 3.3C9.25 2.38333 9.57083 1.60417 10.2125 0.9625C10.8542 0.320833 11.6333 0 12.55 0C13.0833 0 13.5833 0.1125 14.05 0.3375C14.5167 0.5625 14.9167 0.866667 15.25 1.25C15.5833 0.866667 15.9833 0.5625 16.45 0.3375C16.9167 0.1125 17.4167 0 17.95 0C18.8667 0 19.6458 0.320833 20.2875 0.9625C20.9292 1.60417 21.25 2.38333 21.25 3.3C21.25 4.01667 21.075 4.67917 20.725 5.2875C20.375 5.89583 19.9417 6.45 19.425 6.95L15.25 11ZM15.25 8.2L17.975 5.525C18.2917 5.20833 18.5833 4.87083 18.85 4.5125C19.1167 4.15417 19.25 3.75 19.25 3.3C19.25 2.93333 19.125 2.625 18.875 2.375C18.625 2.125 18.3167 2 17.95 2C17.7167 2 17.4958 2.04583 17.2875 2.1375C17.0792 2.22917 16.9 2.36667 16.75 2.55L15.25 4.35L13.75 2.55C13.6 2.36667 13.4208 2.22917 13.2125 2.1375C13.0042 2.04583 12.7833 2 12.55 2C12.1833 2 11.875 2.125 11.625 2.375C11.375 2.625 11.25 2.93333 11.25 3.3C11.25 3.75 11.3833 4.15417 11.65 4.5125C11.9167 4.87083 12.2083 5.20833 12.525 5.525L15.25 8.2ZM6.25 16.5L13.2 18.4L19.15 16.55C19.0667 16.4 18.9458 16.2708 18.7875 16.1625C18.6292 16.0542 18.45 16 18.25 16H13.2C12.75 16 12.3917 15.9833 12.125 15.95C11.8583 15.9167 11.5833 15.85 11.3 15.75L8.975 14.975L9.525 13.025L11.55 13.7C11.8333 13.7833 12.1667 13.85 12.55 13.9C12.9333 13.95 13.5 13.9833 14.25 14C14.25 13.8167 14.1958 13.6417 14.0875 13.475C13.9792 13.3083 13.85 13.2 13.7 13.15L7.85 11H6.25V16.5ZM0.25 20V9H7.85C7.96667 9 8.08333 9.0125 8.2 9.0375C8.31667 9.0625 8.425 9.09167 8.525 9.125L14.4 11.3C14.95 11.5 15.3958 11.85 15.7375 12.35C16.0792 12.85 16.25 13.4 16.25 14H18.25C19.0833 14 19.7917 14.275 20.375 14.825C20.9583 15.375 21.25 16.1 21.25 17V18L13.25 20.5L6.25 18.55V20H0.25ZM2.25 18H4.25V11H2.25V18Z" fill="#523A33"/>
</svg>
