<svg width="78" height="78" viewBox="0 0 78 78" fill="none" xmlns="http://www.w3.org/2000/svg">
<path d="M39.0032 6.5C21.0469 6.5 6.50318 21.0437 6.50318 39C6.49927 45.8222 8.64362 52.4725 12.6321 58.0075C16.6205 63.5424 22.2505 67.6809 28.7234 69.836C30.3484 70.1188 30.9594 69.1437 30.9594 68.289C30.9594 67.5187 30.9172 64.961 30.9172 62.2375C22.7532 63.7422 20.6407 60.2485 19.9907 58.4188C19.6234 57.4827 18.0407 54.6 16.6594 53.8265C15.5219 53.2188 13.8969 51.714 16.6172 51.675C19.1782 51.6327 21.0047 54.0312 21.6157 55.0062C24.5407 59.9202 29.2109 58.539 31.0797 57.6875C31.3657 55.575 32.2172 54.1548 33.1532 53.3423C25.9219 52.5298 18.3657 49.725 18.3657 37.2938C18.3657 33.7578 19.6234 30.836 21.6969 28.5577C21.3719 27.7452 20.2344 24.414 22.0219 19.9453C22.0219 19.9453 24.7422 19.0938 30.9594 23.2798C33.6051 22.5454 36.3387 22.1759 39.0844 22.1812C41.8469 22.1812 44.6094 22.5452 47.2094 23.2765C53.4267 19.0515 56.1469 19.9485 56.1469 19.9485C57.9344 24.4172 56.7969 27.7485 56.4719 28.561C58.5422 30.836 59.8032 33.7188 59.8032 37.2938C59.8032 49.7673 52.2079 52.5298 44.9734 53.3423C46.1532 54.3563 47.1704 56.3063 47.1704 59.3548C47.1704 63.7 47.1282 67.1938 47.1282 68.2923C47.1282 69.1438 47.7392 70.1577 49.3642 69.8327C55.8149 67.654 61.4201 63.5074 65.3909 57.9765C69.3618 52.4456 71.4983 45.8087 71.4999 39C71.4999 21.0437 56.9562 6.5 38.9999 6.5H39.0032Z" fill="#000000"/>
</svg>
