<svg width="23" height="23" viewBox="0 0 23 23" fill="none" xmlns="http://www.w3.org/2000/svg">
<path d="M12.3729 1.85014C13.0476 1.84755 13.7223 1.85433 14.3968 1.87048L14.5762 1.87695C14.7833 1.88435 14.9876 1.89359 15.2345 1.90469C16.2182 1.95091 16.8895 2.10624 17.4784 2.33461C18.0886 2.56945 18.6027 2.8875 19.1168 3.40156C19.5868 3.86348 19.9506 4.42224 20.1828 5.03898C20.4112 5.62793 20.5665 6.30009 20.6127 7.28383C20.6238 7.52976 20.633 7.73502 20.6404 7.94212L20.646 8.12149C20.6624 8.79568 20.6695 9.47006 20.6673 10.1444L20.6682 10.8342V12.0454C20.6705 12.7201 20.6634 13.3947 20.6469 14.0692L20.6414 14.2486C20.634 14.4557 20.6247 14.66 20.6136 14.9069C20.5674 15.8906 20.4102 16.5619 20.1828 17.1508C19.9513 17.7682 19.5875 18.3274 19.1168 18.7892C18.6544 19.2591 18.0954 19.6229 17.4784 19.8552C16.8895 20.0836 16.2182 20.2389 15.2345 20.2851C14.9876 20.2962 14.7833 20.3055 14.5762 20.3129L14.3968 20.3184C13.7223 20.3348 13.0476 20.3419 12.3729 20.3397L11.6832 20.3406H10.473C9.79827 20.3429 9.12358 20.3358 8.44908 20.3193L8.26971 20.3138C8.05023 20.3058 7.83079 20.2966 7.61142 20.286C6.62768 20.2398 5.95644 20.0826 5.36657 19.8552C4.74959 19.6234 4.19073 19.2596 3.72915 18.7892C3.25859 18.3271 2.89448 17.768 2.6622 17.1508C2.43383 16.5619 2.27851 15.8906 2.23228 14.9069C2.22198 14.6875 2.21273 14.4681 2.20454 14.2486L2.19992 14.0692C2.18287 13.3948 2.17517 12.7201 2.1768 12.0454V10.1444C2.17422 9.47006 2.181 8.79568 2.19714 8.12149L2.20362 7.94212C2.21101 7.73502 2.22026 7.52976 2.23135 7.28383C2.27758 6.29916 2.43291 5.62885 2.66128 5.03898C2.89369 4.42194 3.25852 3.86333 3.73008 3.40249C4.19134 2.93165 4.74984 2.56721 5.36657 2.33461C5.95644 2.10624 6.62675 1.95091 7.61142 1.90469L8.26971 1.87695L8.44908 1.87233C9.12326 1.85529 9.79764 1.84758 10.472 1.84921L12.3729 1.85014ZM11.4225 6.47298C10.81 6.46432 10.2018 6.57748 9.63343 6.80589C9.06502 7.0343 8.54768 7.3734 8.11147 7.80349C7.67526 8.23357 7.32887 8.74607 7.09245 9.31119C6.85602 9.87631 6.73427 10.4828 6.73427 11.0954C6.73427 11.7079 6.85602 12.3144 7.09245 12.8795C7.32887 13.4447 7.67526 13.9572 8.11147 14.3872C8.54768 14.8173 9.06502 15.1564 9.63343 15.3848C10.2018 15.6132 10.81 15.7264 11.4225 15.7177C12.6485 15.7177 13.8244 15.2307 14.6913 14.3637C15.5583 13.4968 16.0453 12.321 16.0453 11.0949C16.0453 9.86885 15.5583 8.69301 14.6913 7.82606C13.8244 6.95911 12.6485 6.47298 11.4225 6.47298ZM11.4225 8.32212C11.7909 8.31533 12.157 8.38203 12.4994 8.51832C12.8418 8.65461 13.1536 8.85776 13.4166 9.1159C13.6796 9.37405 13.8885 9.682 14.0311 10.0218C14.1737 10.3616 14.2472 10.7264 14.2473 11.0949C14.2474 11.4634 14.174 11.8282 14.0315 12.1681C13.889 12.5079 13.6801 12.8159 13.4172 13.0742C13.1543 13.3324 12.8426 13.5356 12.5003 13.672C12.158 13.8085 11.7919 13.8753 11.4234 13.8686C10.6878 13.8686 9.98228 13.5764 9.46211 13.0562C8.94194 12.536 8.64971 11.8305 8.64971 11.0949C8.64971 10.3593 8.94194 9.65377 9.46211 9.13359C9.98228 8.61342 10.6878 8.32119 11.4234 8.32119L11.4225 8.32212ZM16.2765 5.08613C15.9782 5.09807 15.6961 5.22495 15.4893 5.44021C15.2825 5.65547 15.167 5.9424 15.167 6.24091C15.167 6.53943 15.2825 6.82636 15.4893 7.04162C15.6961 7.25688 15.9782 7.38376 16.2765 7.3957C16.583 7.3957 16.877 7.27394 17.0937 7.0572C17.3104 6.84046 17.4322 6.5465 17.4322 6.23999C17.4322 5.93348 17.3104 5.63952 17.0937 5.42278C16.877 5.20604 16.583 5.08428 16.2765 5.08428V5.08613Z" fill="#523A33"/>
</svg>
