<svg width="21" height="20" viewBox="0 0 21 20" fill="none" xmlns="http://www.w3.org/2000/svg">
<path d="M6.75 9C7.03333 9 7.27083 8.90417 7.4625 8.7125C7.65417 8.52083 7.75 8.28333 7.75 8C7.75 7.71667 7.65417 7.47917 7.4625 7.2875C7.27083 7.09583 7.03333 7 6.75 7C6.46667 7 6.22917 7.09583 6.0375 7.2875C5.84583 7.47917 5.75 7.71667 5.75 8C5.75 8.28333 5.84583 8.52083 6.0375 8.7125C6.22917 8.90417 6.46667 9 6.75 9ZM10.75 9C11.0333 9 11.2708 8.90417 11.4625 8.7125C11.6542 8.52083 11.75 8.28333 11.75 8C11.75 7.71667 11.6542 7.47917 11.4625 7.2875C11.2708 7.09583 11.0333 7 10.75 7C10.4667 7 10.2292 7.09583 10.0375 7.2875C9.84583 7.47917 9.75 7.71667 9.75 8C9.75 8.28333 9.84583 8.52083 10.0375 8.7125C10.2292 8.90417 10.4667 9 10.75 9ZM14.75 9C15.0333 9 15.2708 8.90417 15.4625 8.7125C15.6542 8.52083 15.75 8.28333 15.75 8C15.75 7.71667 15.6542 7.47917 15.4625 7.2875C15.2708 7.09583 15.0333 7 14.75 7C14.4667 7 14.2292 7.09583 14.0375 7.2875C13.8458 7.47917 13.75 7.71667 13.75 8C13.75 8.28333 13.8458 8.52083 14.0375 8.7125C14.2292 8.90417 14.4667 9 14.75 9ZM0.75 20V2C0.75 1.45 0.945833 0.979167 1.3375 0.5875C1.72917 0.195833 2.2 0 2.75 0H18.75C19.3 0 19.7708 0.195833 20.1625 0.5875C20.5542 0.979167 20.75 1.45 20.75 2V14C20.75 14.55 20.5542 15.0208 20.1625 15.4125C19.7708 15.8042 19.3 16 18.75 16H4.75L0.75 20ZM3.9 14H18.75V2H2.75V15.125L3.9 14Z" fill="#523A33"/>
</svg>
