<svg width="129" height="31" viewBox="0 0 129 31" fill="none" xmlns="http://www.w3.org/2000/svg">
<rect width="129" height="31" rx="9" fill="white"/>
<circle cx="23" cy="15.5" r="6" fill="#FF0000"/>
<path d="M44.908 20.64C44.1427 20.64 43.438 20.514 42.794 20.262C42.15 20.01 41.59 19.66 41.114 19.212C40.638 18.7547 40.2693 18.2227 40.008 17.616C39.7467 17 39.616 16.328 39.616 15.6C39.616 14.872 39.7467 14.2047 40.008 13.598C40.2693 12.982 40.638 12.45 41.114 12.002C41.59 11.5447 42.15 11.19 42.794 10.938C43.438 10.686 44.138 10.56 44.894 10.56C45.6593 10.56 46.3593 10.686 46.994 10.938C47.638 11.19 48.198 11.5447 48.674 12.002C49.15 12.45 49.5187 12.982 49.78 13.598C50.0413 14.2047 50.172 14.872 50.172 15.6C50.172 16.328 50.0413 17 49.78 17.616C49.5187 18.232 49.15 18.764 48.674 19.212C48.198 19.66 47.638 20.01 46.994 20.262C46.3593 20.514 45.664 20.64 44.908 20.64ZM44.894 19.044C45.3887 19.044 45.846 18.96 46.266 18.792C46.686 18.624 47.05 18.386 47.358 18.078C47.666 17.7607 47.904 17.3967 48.072 16.986C48.2493 16.566 48.338 16.104 48.338 15.6C48.338 15.096 48.2493 14.6387 48.072 14.228C47.904 13.808 47.666 13.444 47.358 13.136C47.05 12.8187 46.686 12.576 46.266 12.408C45.846 12.24 45.3887 12.156 44.894 12.156C44.3993 12.156 43.942 12.24 43.522 12.408C43.1113 12.576 42.7473 12.8187 42.43 13.136C42.122 13.444 41.8793 13.808 41.702 14.228C41.534 14.6387 41.45 15.096 41.45 15.6C41.45 16.0947 41.534 16.552 41.702 16.972C41.8793 17.392 42.122 17.7607 42.43 18.078C42.738 18.386 43.102 18.624 43.522 18.792C43.942 18.96 44.3993 19.044 44.894 19.044ZM52.1012 20.5V10.7H53.5992L59.7452 18.246H59.0032V10.7H60.8092V20.5H59.3112L53.1652 12.954H53.9072V20.5H52.1012ZM68.0131 20.64C67.2478 20.64 66.5431 20.5187 65.8991 20.276C65.2645 20.024 64.7091 19.674 64.2331 19.226C63.7571 18.7687 63.3885 18.232 63.1271 17.616C62.8658 17 62.7351 16.328 62.7351 15.6C62.7351 14.872 62.8658 14.2 63.1271 13.584C63.3885 12.968 63.7571 12.436 64.2331 11.988C64.7185 11.5307 65.2831 11.1807 65.9271 10.938C66.5711 10.686 67.2758 10.56 68.0411 10.56C68.8718 10.56 69.6185 10.6953 70.2811 10.966C70.9531 11.2367 71.5178 11.6333 71.9751 12.156L70.8271 13.276C70.4445 12.8933 70.0291 12.6133 69.5811 12.436C69.1425 12.2493 68.6571 12.156 68.1251 12.156C67.6118 12.156 67.1358 12.24 66.6971 12.408C66.2585 12.576 65.8805 12.814 65.5631 13.122C65.2458 13.43 64.9985 13.794 64.8211 14.214C64.6531 14.634 64.5691 15.096 64.5691 15.6C64.5691 16.0947 64.6531 16.552 64.8211 16.972C64.9985 17.392 65.2458 17.7607 65.5631 18.078C65.8805 18.386 66.2538 18.624 66.6831 18.792C67.1125 18.96 67.5885 19.044 68.1111 19.044C68.5965 19.044 69.0631 18.9693 69.5111 18.82C69.9685 18.6613 70.4025 18.4 70.8131 18.036L71.8491 19.394C71.3358 19.8047 70.7385 20.1173 70.0571 20.332C69.3851 20.5373 68.7038 20.64 68.0131 20.64ZM70.1271 19.156V15.488H71.8491V19.394L70.1271 19.156ZM78.8416 20.64C78.0763 20.64 77.3716 20.514 76.7276 20.262C76.0836 20.01 75.5236 19.66 75.0476 19.212C74.5716 18.7547 74.2029 18.2227 73.9416 17.616C73.6803 17 73.5496 16.328 73.5496 15.6C73.5496 14.872 73.6803 14.2047 73.9416 13.598C74.2029 12.982 74.5716 12.45 75.0476 12.002C75.5236 11.5447 76.0836 11.19 76.7276 10.938C77.3716 10.686 78.0716 10.56 78.8276 10.56C79.5929 10.56 80.2929 10.686 80.9276 10.938C81.5716 11.19 82.1316 11.5447 82.6076 12.002C83.0836 12.45 83.4523 12.982 83.7136 13.598C83.9749 14.2047 84.1056 14.872 84.1056 15.6C84.1056 16.328 83.9749 17 83.7136 17.616C83.4523 18.232 83.0836 18.764 82.6076 19.212C82.1316 19.66 81.5716 20.01 80.9276 20.262C80.2929 20.514 79.5976 20.64 78.8416 20.64ZM78.8276 19.044C79.3223 19.044 79.7796 18.96 80.1996 18.792C80.6196 18.624 80.9836 18.386 81.2916 18.078C81.5996 17.7607 81.8376 17.3967 82.0056 16.986C82.1829 16.566 82.2716 16.104 82.2716 15.6C82.2716 15.096 82.1829 14.6387 82.0056 14.228C81.8376 13.808 81.5996 13.444 81.2916 13.136C80.9836 12.8187 80.6196 12.576 80.1996 12.408C79.7796 12.24 79.3223 12.156 78.8276 12.156C78.3329 12.156 77.8756 12.24 77.4556 12.408C77.0449 12.576 76.6809 12.8187 76.3636 13.136C76.0556 13.444 75.8129 13.808 75.6356 14.228C75.4676 14.6387 75.3836 15.096 75.3836 15.6C75.3836 16.0947 75.4676 16.552 75.6356 16.972C75.8129 17.392 76.0556 17.7607 76.3636 18.078C76.6716 18.386 77.0356 18.624 77.4556 18.792C77.8756 18.96 78.3329 19.044 78.8276 19.044ZM86.0348 20.5V10.7H87.8548V20.5H86.0348ZM90.5055 20.5V10.7H92.0035L98.1495 18.246H97.4075V10.7H99.2135V20.5H97.7155L91.5695 12.954H92.3115V20.5H90.5055ZM106.417 20.64C105.652 20.64 104.947 20.5187 104.303 20.276C103.669 20.024 103.113 19.674 102.637 19.226C102.161 18.7687 101.793 18.232 101.531 17.616C101.27 17 101.139 16.328 101.139 15.6C101.139 14.872 101.27 14.2 101.531 13.584C101.793 12.968 102.161 12.436 102.637 11.988C103.123 11.5307 103.687 11.1807 104.331 10.938C104.975 10.686 105.68 10.56 106.445 10.56C107.276 10.56 108.023 10.6953 108.685 10.966C109.357 11.2367 109.922 11.6333 110.379 12.156L109.231 13.276C108.849 12.8933 108.433 12.6133 107.985 12.436C107.547 12.2493 107.061 12.156 106.529 12.156C106.016 12.156 105.54 12.24 105.101 12.408C104.663 12.576 104.285 12.814 103.967 13.122C103.65 13.43 103.403 13.794 103.225 14.214C103.057 14.634 102.973 15.096 102.973 15.6C102.973 16.0947 103.057 16.552 103.225 16.972C103.403 17.392 103.65 17.7607 103.967 18.078C104.285 18.386 104.658 18.624 105.087 18.792C105.517 18.96 105.993 19.044 106.515 19.044C107.001 19.044 107.467 18.9693 107.915 18.82C108.373 18.6613 108.807 18.4 109.217 18.036L110.253 19.394C109.74 19.8047 109.143 20.1173 108.461 20.332C107.789 20.5373 107.108 20.64 106.417 20.64ZM108.531 19.156V15.488H110.253V19.394L108.531 19.156Z" fill="#523A33"/>
</svg>

