<svg width="136" height="31" viewBox="0 0 136 31" fill="none" xmlns="http://www.w3.org/2000/svg">
<rect width="136" height="31" rx="9" fill="white"/>
<circle cx="23" cy="15.5" r="6" fill="#FEDC84"/>
<path d="M40.316 20.5V10.7H44.348C45.216 10.7 45.958 10.84 46.574 11.12C47.1993 11.4 47.68 11.8013 48.016 12.324C48.352 12.8467 48.52 13.4673 48.52 14.186C48.52 14.9047 48.352 15.5253 48.016 16.048C47.68 16.5613 47.1993 16.958 46.574 17.238C45.958 17.5087 45.216 17.644 44.348 17.644H41.324L42.136 16.818V20.5H40.316ZM46.728 20.5L44.25 16.944H46.196L48.688 20.5H46.728ZM42.136 17.014L41.324 16.146H44.264C45.0667 16.146 45.6687 15.9733 46.07 15.628C46.4807 15.2827 46.686 14.802 46.686 14.186C46.686 13.5607 46.4807 13.08 46.07 12.744C45.6687 12.408 45.0667 12.24 44.264 12.24H41.324L42.136 11.344V17.014ZM52.2362 14.774H57.1082V16.272H52.2362V14.774ZM52.3762 18.974H57.9062V20.5H50.5562V10.7H57.7102V12.226H52.3762V18.974ZM64.4711 20.64C63.7245 20.64 63.0291 20.5187 62.3851 20.276C61.7505 20.024 61.1951 19.674 60.7191 19.226C60.2525 18.7687 59.8885 18.232 59.6271 17.616C59.3658 17 59.2351 16.328 59.2351 15.6C59.2351 14.872 59.3658 14.2 59.6271 13.584C59.8885 12.968 60.2571 12.436 60.7331 11.988C61.2091 11.5307 61.7645 11.1807 62.3991 10.938C63.0338 10.686 63.7291 10.56 64.4851 10.56C65.2878 10.56 66.0205 10.7 66.6831 10.98C67.3458 11.2507 67.9058 11.6567 68.3631 12.198L67.1871 13.304C66.8325 12.9213 66.4358 12.6367 65.9971 12.45C65.5585 12.254 65.0825 12.156 64.5691 12.156C64.0558 12.156 63.5845 12.24 63.1551 12.408C62.7351 12.576 62.3665 12.814 62.0491 13.122C61.7411 13.43 61.4985 13.794 61.3211 14.214C61.1531 14.634 61.0691 15.096 61.0691 15.6C61.0691 16.104 61.1531 16.566 61.3211 16.986C61.4985 17.406 61.7411 17.77 62.0491 18.078C62.3665 18.386 62.7351 18.624 63.1551 18.792C63.5845 18.96 64.0558 19.044 64.5691 19.044C65.0825 19.044 65.5585 18.9507 65.9971 18.764C66.4358 18.568 66.8325 18.274 67.1871 17.882L68.3631 19.002C67.9058 19.534 67.3458 19.94 66.6831 20.22C66.0205 20.5 65.2831 20.64 64.4711 20.64ZM74.4939 20.64C73.7286 20.64 73.0239 20.514 72.3799 20.262C71.7359 20.01 71.1759 19.66 70.6999 19.212C70.2239 18.7547 69.8553 18.2227 69.5939 17.616C69.3326 17 69.2019 16.328 69.2019 15.6C69.2019 14.872 69.3326 14.2047 69.5939 13.598C69.8553 12.982 70.2239 12.45 70.6999 12.002C71.1759 11.5447 71.7359 11.19 72.3799 10.938C73.0239 10.686 73.7239 10.56 74.4799 10.56C75.2453 10.56 75.9453 10.686 76.5799 10.938C77.2239 11.19 77.7839 11.5447 78.2599 12.002C78.7359 12.45 79.1046 12.982 79.3659 13.598C79.6273 14.2047 79.7579 14.872 79.7579 15.6C79.7579 16.328 79.6273 17 79.3659 17.616C79.1046 18.232 78.7359 18.764 78.2599 19.212C77.7839 19.66 77.2239 20.01 76.5799 20.262C75.9453 20.514 75.2499 20.64 74.4939 20.64ZM74.4799 19.044C74.9746 19.044 75.4319 18.96 75.8519 18.792C76.2719 18.624 76.6359 18.386 76.9439 18.078C77.2519 17.7607 77.4899 17.3967 77.6579 16.986C77.8353 16.566 77.9239 16.104 77.9239 15.6C77.9239 15.096 77.8353 14.6387 77.6579 14.228C77.4899 13.808 77.2519 13.444 76.9439 13.136C76.6359 12.8187 76.2719 12.576 75.8519 12.408C75.4319 12.24 74.9746 12.156 74.4799 12.156C73.9853 12.156 73.5279 12.24 73.1079 12.408C72.6973 12.576 72.3333 12.8187 72.0159 13.136C71.7079 13.444 71.4653 13.808 71.2879 14.228C71.1199 14.6387 71.0359 15.096 71.0359 15.6C71.0359 16.0947 71.1199 16.552 71.2879 16.972C71.4653 17.392 71.7079 17.7607 72.0159 18.078C72.3239 18.386 72.6879 18.624 73.1079 18.792C73.5279 18.96 73.9853 19.044 74.4799 19.044ZM84.2843 20.5L80.0003 10.7H81.9743L85.7963 19.562H84.6623L88.5263 10.7H90.3463L86.0763 20.5H84.2843ZM93.0605 14.774H97.9325V16.272H93.0605V14.774ZM93.2005 18.974H98.7305V20.5H91.3805V10.7H98.5345V12.226H93.2005V18.974ZM100.759 20.5V10.7H104.791C105.659 10.7 106.401 10.84 107.017 11.12C107.643 11.4 108.123 11.8013 108.459 12.324C108.795 12.8467 108.963 13.4673 108.963 14.186C108.963 14.9047 108.795 15.5253 108.459 16.048C108.123 16.5613 107.643 16.958 107.017 17.238C106.401 17.5087 105.659 17.644 104.791 17.644H101.767L102.579 16.818V20.5H100.759ZM107.171 20.5L104.693 16.944H106.639L109.131 20.5H107.171ZM102.579 17.014L101.767 16.146H104.707C105.51 16.146 106.112 15.9733 106.513 15.628C106.924 15.2827 107.129 14.802 107.129 14.186C107.129 13.5607 106.924 13.08 106.513 12.744C106.112 12.408 105.51 12.24 104.707 12.24H101.767L102.579 11.344V17.014ZM113.271 20.5V16.622L113.677 17.742L109.421 10.7H111.367L114.783 16.37H113.691L117.135 10.7H118.927L114.671 17.742L115.091 16.622V20.5H113.271Z" fill="#523A33"/>
</svg>
