<svg width="369" height="359" viewBox="0 0 369 359" fill="none" xmlns="http://www.w3.org/2000/svg">
<path d="M46.4797 351.522L19.9757 320.189C11.5761 309.689 7.00004 296.643 7 283.196V215.133C7 209.898 9.07973 204.877 12.7817 201.175C16.4836 197.473 21.5045 195.393 26.7398 195.393C31.9752 195.393 36.9961 197.473 40.698 201.175C44.4 204.877 46.4797 209.898 46.4797 215.133V264.483" stroke="black" stroke-width="14" stroke-linecap="round" stroke-linejoin="round"/>
<path d="M105.7 351.521V312.042C105.705 300.331 102.238 288.882 95.7375 279.142L80.7089 256.639C79.4212 254.506 77.7142 252.656 75.6912 251.202C73.6682 249.747 71.3712 248.718 68.9392 248.177C66.5072 247.636 63.9906 247.593 61.5418 248.053C59.0929 248.512 56.7626 249.463 54.6918 250.848C50.9751 253.34 48.2924 257.1 47.1446 261.425C45.9967 265.75 46.4622 270.345 48.454 274.352L66.2462 303.961" stroke="black" stroke-width="14" stroke-linecap="round" stroke-linejoin="round"/>
<path d="M321.889 350.358L348.393 319.024C356.793 308.524 361.369 295.478 361.369 282.032V213.969C361.369 208.733 359.289 203.712 355.587 200.01C351.885 196.308 346.864 194.229 341.629 194.229C336.394 194.229 331.373 196.308 327.671 200.01C323.969 203.712 321.889 208.733 321.889 213.969V263.318" stroke="black" stroke-width="14" stroke-linecap="round" stroke-linejoin="round"/>
<path d="M262.67 350.358V310.878C262.664 299.168 266.131 287.719 272.632 277.978L287.66 255.448C288.943 253.31 290.646 251.454 292.666 249.994C294.687 248.533 296.983 247.497 299.415 246.95C301.847 246.402 304.366 246.354 306.817 246.808C309.269 247.263 311.603 248.21 313.677 249.592C317.415 252.082 320.114 255.852 321.267 260.192C322.421 264.532 321.949 269.145 319.942 273.162L302.149 302.771" stroke="black" stroke-width="14" stroke-linecap="round" stroke-linejoin="round"/>
<path d="M194.937 198.616C199.123 203.754 198.384 211.386 192.761 214.893C179.69 223.045 164.781 227.938 149.299 229.07C129.81 230.494 110.354 225.89 93.571 215.881C76.7877 205.873 63.4889 190.945 55.478 173.121C47.4671 155.298 45.132 135.442 48.7892 116.246C52.4465 97.0507 61.9192 79.4444 75.9226 65.8154C89.9259 52.1863 107.782 43.194 127.07 40.058C146.358 36.922 166.143 39.7941 183.743 48.2848C197.725 55.0301 209.79 65.062 218.947 77.4491C222.887 82.7783 220.768 90.1478 214.986 93.3868L210.301 96.0116C204.519 99.2506 197.281 97.0968 193.048 91.9973C187.044 84.7642 179.531 78.8627 170.981 74.738C158.808 68.8655 145.124 66.879 131.783 69.048C118.443 71.217 106.093 77.4365 96.4076 86.863C86.7222 96.2894 80.1705 108.467 77.6409 121.743C75.1114 135.02 76.7265 148.753 82.2672 161.081C87.8078 173.408 97.006 183.733 108.614 190.655C120.222 197.578 133.678 200.762 147.158 199.777C156.625 199.085 165.782 196.36 174.025 191.841C179.837 188.655 187.359 189.314 191.545 194.452L194.937 198.616Z" fill="black"/>
<path d="M307.859 163.351C314.063 165.682 317.268 172.648 314.176 178.51C309.766 186.871 304.125 194.549 297.424 201.279C287.892 210.851 276.434 218.286 263.81 223.091C251.185 227.896 237.683 229.961 224.2 229.149C210.716 228.336 197.559 224.665 185.603 218.379C173.647 212.093 163.164 203.336 154.851 192.689C146.538 182.042 140.585 169.748 137.387 156.625C134.188 143.501 133.818 129.846 136.3 116.568C138.045 107.233 141.172 98.2335 145.56 89.8608C148.636 83.9905 156.192 82.682 161.629 86.4714L166.035 89.5422C171.472 93.3316 172.692 100.784 169.951 106.817C167.758 111.642 166.15 116.727 165.171 121.966C163.454 131.149 163.71 140.593 165.922 149.67C168.134 158.747 172.252 167.25 178.001 174.614C183.751 181.978 191.001 188.035 199.271 192.383C207.54 196.73 216.64 199.269 225.966 199.831C235.292 200.393 244.63 198.965 253.362 195.642C262.094 192.318 270.019 187.176 276.611 180.555C280.371 176.779 283.648 172.571 286.38 168.03C289.796 162.351 296.627 159.132 302.831 161.462L307.859 163.351Z" fill="black"/>
<path d="M177.026 69.7923C172.814 64.675 173.516 57.0392 179.121 53.5042C187.451 48.252 196.565 44.3099 206.147 41.8394C219.613 38.3675 233.675 37.8863 247.347 40.4296C261.019 42.973 273.968 48.4791 285.285 56.5613C293.337 62.3122 300.424 69.2681 306.307 77.1642C310.267 82.4787 308.175 89.8558 302.405 93.1163L297.73 95.7585C291.96 99.019 284.714 96.8925 280.462 91.8087C276.888 87.5348 272.775 83.7192 268.215 80.4623C260.388 74.8723 251.432 71.064 241.976 69.3049C232.52 67.5458 222.793 67.8787 213.479 70.28C208.053 71.6791 202.843 73.7606 197.971 76.4631C192.176 79.6778 184.65 79.0565 180.439 73.9392L177.026 69.7923Z" fill="black"/>
</svg>
